<svg xmlns="http://www.w3.org/2000/svg" width="171" height="32" viewBox="0 0 171 32"><path d="M0 276v-38.7H1441.3V200h-166.6v-54.7h21.4l3.2-7.2c8.6-19.3 11.4-41 12.3-95.1l.8-43h174.3v145.3h22.6v92h528v-108H1976V200h-147.3l-6-21-6-21-31.4-.4-31.3-.3-5.3 21-5.4 21-111 .4-111 .3.4-98.3.3-98.4h148v48l-38.3.4-38.4.3V77.3H1660v48H1593.3V152h78.6l.4 21.3.4 21.2 29.9-92C1719 52 1733.3 9 1734.2 6.8l1.7-4h49.4c27.1 0 49.4.1 49.4.3l34.6 97 34.6 96.7v-97l.1-97h72v68h61.3V2.3l20.6.6c20.4.5 20.7.6 29.7 5.2 9.7 4.9 16 12.3 19.2 22.3 1.2 3.6 2 43.5 2.7 143 .6 75.8.8 138.7.5 139.6-.5 1.3-212.7 1.7-1055.3 1.7H0zM1416 98V50.7h-37.3v5c-.1 25-5.7 67.4-11.5 87.3-.7 2.2 1 2.3 24 2.3h24.8V98zm386.1 10.3l-9.4-32.2c-4.8-16.4-8.9-30-9.2-30.3-.2-.3-2.6 7.8-5.3 17.8l-8.7 32.7-3.9 14.4h18.6c17.1 0 18.6-.2 18-2.4zm-996.4-6.6l.3-98.4 39-.3 38.8-.4 18.3 21.5c17.7 20.7 18.4 21.4 20.5 18.8l18-21.4 15.8-18.8h78.2V200h-69.2l-.4-64.3-.3-64.4-22 23-22 23-22.3-23-22.3-23v64.4L876 200H805.3zm253-.4V2.7h66.6l.4 53.9.3 54 31.3-54 31.3-54 38 .4 38 .3.4 98.4.4 98.3h-68l-.4-52.6-.3-52.6-30.5 52.6-30.4 52.6h-77.1zm-889.4-.6v-98H288v196H169.3zm154.7 0v-98H442.7v196H324zm154.7-.1v-98l39.6.3 39.7.4 7.7 3.6a61 61 0 0126.7 26.3l4.3 8.7.3 78.4.4 78.4H478.7z" fill="#9387b4"/><path d="M0 276v-38.7H1441.3V200h-166.6v-54.7h21.2l2.7-5.2c1.5-2.9 3.9-9.6 5.4-15 5.6-20.5 7-34.7 7.6-80.8l.7-44.3h174.4v145.3H1508v92h529.3v-108H1976V200h-147.3l-6-21-6-21-31.4-.4-31.3-.3-5.4 21-5.4 21-110.3.4-110.2.3V4h146.6v48h-76V77.3H1660v48H1593.3V152H1672v21.7l.2 21.6 13.3-40.6 31.3-95.7 18-55 50.2.3 50.2.4 34.3 96 34.4 96v-96.4L1904 4h72V70.7h61.3V3.8l22.4.4c21.7.5 22.5.6 29.3 4.3a36 36 0 0116.9 20c2.7 6.8 2.8 7.9 3.1 146.5l.4 139.7H0zM1416 98V50.7h-37.1l-.7 7c-.4 3.8-1 13.9-1.4 22.3a315 315 0 01-9.6 63c-.7 2.2 1 2.3 24 2.3h24.8zm386.7 13c0-1.6-18.5-64.6-19.1-65.2-.7-.7-18 64-17.3 65.2.7 1.4 36.4 1.3 36.4 0zm-997.4-9V4H885l17.7 20.9 17.8 20.8 2.4-3 17.4-20.9 15-17.8h79.4v196H965.4l-.4-64.3-.3-64.4-22 23-22 23-22-22.7a365.3 365.3 0 00-23-22.6c-.6 0-1 28.8-1 64v64h-69.4zm253.4 0V4h66.6l.4 53.4.3 53.4 30.8-53 30.7-53.1 39-.4 38.8-.3v196h-66.6v-53.7c-.1-45.4-.4-53.3-2-51.3a2854 2854 0 00-31.4 53.7l-29.7 51.3h-76.9zm-889.4-1.3v-98H288v196H169.3zm154.7 0v-98H442.7v196H324zm154.7-.1v-98l39.6.3 39.7.4 7.7 3.6a61 61 0 0126.7 26.3l4.3 8.7.3 78.4.4 78.4H478.7z" fill="#3d9cdb"/><path d="M0 276v-38.7H1441.3V200h-166.6v-54.7h21.2l2.7-5.2c1.5-2.9 3.9-9.6 5.4-15 5.6-20.5 7-34.7 7.6-80.8l.7-44.3h174.4v145.3H1508v92h529.3v-108H1976V200h-147.3l-6-21-6-21-31.4-.4-31.3-.3-5.4 21-5.4 21-110.3.4-110.2.3V4h146.6v48h-76V77.3H1660v48H1593.3V152H1672v21.7l.2 21.6 13.3-40.6 31.3-95.7 18-55 50.2.3 50.2.4 34.3 96 34.4 96v-96.4L1904 4h72V70.7h61.3V3.8l22.4.4c21.7.5 22.5.6 29.3 4.3a36 36 0 0116.9 20c2.7 6.8 2.8 7.9 3.1 146.5l.4 139.7H0zM1416 98V50.7h-37.1l-.7 7c-.4 3.8-1 13.9-1.4 22.3a315 315 0 01-9.6 63c-.7 2.2 1 2.3 24 2.3h24.8zm386.7 13c0-1.6-18.5-64.6-19.1-65.2-.7-.7-18 64-17.3 65.2.7 1.4 36.4 1.3 36.4 0zm-997.4-9V4H885l17.7 20.9 17.8 20.8 2.4-3 17.4-20.9 15-17.8h79.4v196H965.4l-.4-64.3-.3-64.4-22 23-22 23-22-22.7a365.3 365.3 0 00-23-22.6c-.6 0-1 28.8-1 64v64h-69.4zm253.4 0V4h66.6l.4 53.4.3 53.4 30.8-53 30.7-53.1 39-.4 38.8-.3v196h-66.6v-53.7c-.1-45.4-.4-53.3-2-51.3a2854 2854 0 00-31.4 53.7l-29.7 51.3h-76.9zm-889.4-1.3v-98h117.4v196H169.3zm154.7 0v-98H442.7v196H324zm154.7-.1V2.5l39 .4 39 .4 9 4.3A54.1 54.1 0 01595.8 45c1 4.7 1.5 31.1 1.5 80.3v73.3H478.7z" fill="#8679ab"/><path d="M0 276v-38.7H1441.3V200h-166.6v-54.7h21.4l3.3-7.1c8.8-19.1 11.3-38.8 12.2-93.9l.7-44.3h174.4v145.3H1508v92h529.3v-108H1976V200l-73.6-.3-73.6-.4-6-21-6.1-21h-62.9l-5.3 21-5.4 21-110.2.4-110.2.3V4h146.6v48h-76V77.3H1660v48H1593.3V152H1672l.1 21.7.1 21.6 17.8-54 31.4-95.6L1734.9 4l50 .3 50.1.4 34.2 95.8 34.1 95.8.4-96.2.3-96.1h72V70.7h61.3V4h20c16.6 0 21.1.4 27 2.7 9 3.3 17.5 11.8 21.4 21.4l3 7.2.3 139.7.4 139.7H0zM1416 98V50.7h-37.2l-.7 5.6c-.3 3.1-1 12.9-1.3 21.7a303.5 303.5 0 01-10.1 66.6c0 .4 11 .7 24.6.7h24.7zm386.7 12.5c0-1.3-7.2-26.4-15.5-54.3a45.2 45.2 0 00-4-10.6c-.2.3-4.1 14.3-8.6 31.1-4.4 16.9-8.4 31.7-8.8 33-.6 2.1.9 2.3 18.1 2.3 12.7 0 18.8-.5 18.8-1.5zM805.3 102V4h79.5l17.3 20.6a355.5 355.5 0 0018 20.6c.5 0 8.6-9.1 18-20.5l17.2-20.6H995l39.7-.1v196h-69.4V70.2l-22.5 23.2-22.6 23.3-22.7-23.4L874.8 70v65l-.1 65h-69.4zm253.4 0V4h66.6l.4 53.5.3 53.6 30.8-53.2 30.9-53.2 38.8-.4 38.8-.3v196h-66.6v-53.6c0-45-.3-53.3-1.8-51.7-1 1-15.2 25.2-31.6 53.6l-29.8 51.7h-76.8zm-889.4-1.3v-98h117.4v196H169.3zm154.7 0v-98H442.7v196H324zm154.7-.1V2.5l39 .4 39 .4 9 4.3A54.1 54.1 0 01595.8 45c1 4.7 1.5 31.1 1.5 80.3v73.3H478.7z" fill="#007cd0"/><path d="M0 276v-38.7H1441.3V200h-166.6v-54.7h21.4l3.3-7.1c8.8-19.1 11.3-38.8 12.2-93.9l.7-44.3h174.4v145.3H1508v92h529.3v-108H1976V200l-73.6-.3-73.6-.4-6-21-6.1-21h-62.9l-5.3 21-5.4 21-110.2.4-110.2.3V4h146.6v48h-76V77.3H1660v48H1593.3V152H1672l.1 21.7.1 21.6 17.8-54 31.4-95.6L1734.9 4l50 .3 50.1.4 34.2 95.8 34.1 95.8.4-96.2.3-96.1h72V70.7h61.3V4h20c16.6 0 21.1.4 27 2.7 9 3.3 17.5 11.8 21.4 21.4l3 7.2.3 139.7.4 139.7H0zM1416 98V50.7h-37.2l-.7 5.6c-.3 3.1-1 12.9-1.3 21.7a303.5 303.5 0 01-10.1 66.6c0 .4 11 .7 24.6.7h24.7zm386.7 12.5c0-1.3-7.2-26.4-15.5-54.3a45.2 45.2 0 00-4-10.6c-.2.3-4.1 14.3-8.6 31.1-4.4 16.9-8.4 31.7-8.8 33-.6 2.1.9 2.3 18.1 2.3 12.7 0 18.8-.5 18.8-1.5zM805.3 102V4h79.5l17.3 20.6a355.5 355.5 0 0018 20.6c.5 0 8.6-9.1 18-20.5l17.2-20.6H995l39.7-.1v196h-69.4V70.2l-22.5 23.2-22.6 23.3-22.7-23.4L874.8 70v65l-.1 65h-69.4zm253.4 0V4h66.6l.4 53.5.3 53.6 30.8-53.2 30.9-53.2 38.8-.4 38.8-.3v196h-66.6v-53.6c0-45-.3-53.3-1.8-51.7-1 1-15.2 25.2-31.6 53.6l-29.8 51.7h-76.8z" fill="#5e4c8f"/><path d="M0 276v-37.3H1441.3V200h-166.6v-54.6l11-.3 11-.4 2.9-6c8-16.8 12-46.2 13.3-100.1l.9-38.6h172.9v145.3H1508l.3 46.4.4 46.3h528V128.7l-30.4-.4-30.3-.4V200l-73.5-.3-73.5-.4-6-21-6.2-21h-63.1l-4.2 16.4-5.6 21.3-1.4 5h-219.9V4h146.7v46.6l-38.3.4-38.3.3-.4 13-.4 13h68.1v48h-68.1l.4 13 .4 13 39.6.4 39.6.3.4 21.8.4 21.7 22.6-69.4 31.2-95.8L1735 4l50 .3 49.8.4 34.2 96 34.2 96 .4-96.4.3-96.3h72v68l30.3-.3 30.4-.4.3-33.6.4-33.7h19c13 0 21.2.6 25.7 2 13.6 4 24.4 17.9 25.4 32.6.2 4 .7 67.5 1 141l.7 133.7H0zM1415.7 97.7l-.4-47.7H1378l-.8 19.3c-1.2 27.1-5 54.8-10 73l-.8 3h49.6zm387 12.6c0-1.8-18.4-65.1-19.1-65.8-.4-.4-9.5 32.9-17.8 64.5l-.8 3h18.8c14.2 0 18.9-.4 18.9-1.7zm-996-8.3V4h78L902 24.6a350.8 350.8 0 0018.1 20.7c.5 0 8.6-9.2 18-20.6l17.2-20.6H995l39.7-.1v196h-69.4V70.2l-22.5 23.2-22.5 23.3-22.8-23.4L874.8 70v65l-.1 65h-68zm252 0V4h66.6l.4 53.7.3 53.6 31.1-53.6L1188.3 4H1264v196H1198.7v-53.3c0-29.4-.5-53.3-1-53.3-.6 0-14.8 24-31.7 53.3l-30.7 53.3h-76.6z" fill="#503e86"/><path d="M0 276v-37.3H1441.3V200h-166.6v-54.7H1297l2.7-6.3c9.1-21.3 13.5-60 13.6-119.3V0h173.4v145.3H1508v93.4h529.3V128H1976v72h-146.6l-1.8-6.3-6.3-21.4-4.4-15h-31.8a540 540 0 00-31.8.5L1744 195l-1.3 5h-220V4h146.7v46.6l-38.3.4-38.3.3-.4 13-.4 13h68.1v48h-68V152h80l.3 22.1.4 22.2 31.2-96.2L1735.2 4h99.2l3.2 9 34.5 96.5 31.2 87.6.4-96.6.3-96.5h72v68h61.3V3.8l21.7.4c20.4.5 22 .7 28.3 4a48 48 0 0110.3 7.3 43 43 0 019.8 24.3c.3 4.2.8 67.4 1.2 140.5l.6 133H0zM1416 97.3v-48l-19 .3-19 .4-.9 20c-1 22.5-3.8 45.3-7.8 61.8-1.4 6-2.6 11.6-2.6 12.3 0 .7 10.2 1.2 24.6 1.2h24.7zm386.7 11l-6.6-23c-9-31-12.3-41.6-12.9-41-.5.6-17.9 65.1-17.9 66.7 0 .5 8.7 1 19.3 1h19.2zm-996-6.3V4h39l39 .1L902 24.7a293.5 293.5 0 0018.2 20.6c.5 0 8.8-9.3 18.4-20.6L956.1 4h78.6v196h-69.4V70l-22.4 23.2-22.4 23.3-20.6-21a518 518 0 01-21.6-23c-.6-1-1.7-1.8-2.4-1.8s-1.2 24.7-1.2 64.6V200h-68zm252 0V4h66.6l.4 53.9.3 53.9 31.2-54L1188.4 4h75.6v196H1198.7v-53.3c0-29.4-.5-53.4-1-53.3-.6 0-14.8 24-31.7 53.3l-30.7 53.2H1097l-38.3.1z" fill="#28116a"/></svg>