<?xml version="1.0" standalone="no"?>
<!DOCTYPE svg PUBLIC "-//W3C//DTD SVG 20010904//EN"
 "http://www.w3.org/TR/2001/REC-SVG-20010904/DTD/svg10.dtd">
<svg version="1.0" xmlns="http://www.w3.org/2000/svg"
 width="260.000000pt" height="182.000000pt" viewBox="0 0 260.000000 182.000000"
 preserveAspectRatio="xMidYMid meet">

<g transform="translate(0.000000,182.000000) scale(0.100000,-0.100000)"
fill="#000000" stroke="none">
<path d="M0 910 l0 -910 1300 0 1300 0 0 910 0 910 -1300 0 -1300 0 0 -910z
m1175 730 c3 -5 1 -10 -4 -10 -6 0 -11 5 -11 10 0 6 2 10 4 10 3 0 8 -4 11
-10z m217 -58 c40 -22 173 -90 296 -152 l222 -113 0 -223 c0 -143 -4 -224 -10
-224 -5 0 -10 8 -10 18 0 28 -21 42 -65 42 l-40 1 44 37 c42 37 43 40 44 99 0
33 -6 82 -13 107 -11 39 -20 51 -57 73 -90 52 -109 55 -266 37 -78 -9 -154
-22 -169 -30 -15 -8 -48 -34 -75 -59 -31 -30 -50 -42 -57 -35 -16 16 -39 12
-32 -6 3 -8 2 -12 -4 -9 -6 3 -10 -3 -10 -14 0 -11 -3 -22 -7 -24 -5 -3 -8 8
-8 23 0 15 4 26 9 23 5 -4 6 -1 2 5 -17 28 -66 5 -66 -30 0 -10 -4 -18 -10
-18 -5 0 -10 9 -10 20 0 29 -31 40 -112 40 -56 0 -81 -5 -106 -20 -40 -24 -77
-101 -87 -177 -4 -29 -11 -55 -16 -59 -5 -3 -9 -14 -9 -25 0 -14 -7 -19 -25
-19 l-25 0 0 223 0 223 293 151 c160 83 295 151 299 152 5 0 41 -16 80 -37z
m-365 -8 c-3 -3 -12 -4 -19 -1 -8 3 -5 6 6 6 11 1 17 -2 13 -5z m53 2 c0 -2
-7 -7 -16 -10 -8 -3 -12 -2 -9 4 6 10 25 14 25 6z m536 -8 c4 -7 3 -8 -4 -4
-7 4 -12 2 -12 -5 0 -7 -3 -10 -6 -6 -6 5 3 27 11 27 2 0 7 -5 11 -12z m31
-24 c-3 -3 -12 -4 -19 -1 -8 3 -5 6 6 6 11 1 17 -2 13 -5z m-727 -51 c-8 -3
-23 -10 -32 -14 -11 -6 -19 -5 -24 3 -4 6 -3 8 2 5 6 -3 16 -2 24 4 8 5 22 8
30 8 13 -1 13 -1 0 -6z m830 3 c0 -3 -4 -8 -10 -11 -5 -3 -10 -1 -10 4 0 6 5
11 10 11 6 0 10 -2 10 -4z m55 -26 c2 -4 -7 -6 -21 -4 -35 3 -41 12 -9 12 14
0 27 -4 30 -8z m-990 -9 c3 -5 2 -12 -3 -15 -5 -3 -9 1 -9 9 0 17 3 19 12 6z
m-75 -56 c0 -12 -19 -12 -23 0 -4 9 -1 12 9 8 7 -3 14 -7 14 -8z m1170 -5 c0
-5 -7 -7 -15 -4 -8 4 -15 8 -15 10 0 2 7 4 15 4 8 0 15 -4 15 -10z m73 3 c-7
-2 -19 -2 -25 0 -7 3 -2 5 12 5 14 0 19 -2 13 -5z m-1283 -23 c-8 -5 -17 -7
-19 -4 -3 3 1 9 9 14 8 5 17 7 19 4 3 -3 -1 -9 -9 -14z m925 -161 c33 -15 77
-44 97 -64 60 -57 58 -45 -11 63 l-14 24 38 -17 c22 -8 47 -23 57 -32 26 -23
41 -80 34 -126 l-7 -41 22 20 c21 19 21 19 18 -5 -4 -27 -41 -57 -82 -67 l-28
-6 22 36 22 37 -49 -31 c-74 -47 -143 -64 -266 -64 -58 0 -104 -4 -102 -8 7
-11 -28 -10 -64 3 -22 7 -35 22 -46 50 -18 44 -21 125 -6 134 13 8 30 -37 31
-83 l1 -37 10 29 c8 21 7 44 -2 84 -12 53 -11 57 10 74 28 23 72 23 93 0 9
-10 21 -43 26 -73 l10 -54 -3 75 c-2 41 -6 82 -10 92 -17 37 111 30 199 -13z
m-537 -183 l3 -106 -110 0 c-107 0 -110 1 -130 27 -41 51 -38 94 13 158 22 28
30 30 103 35 121 8 118 11 121 -114z m149 82 c-3 -8 -6 -5 -6 6 -1 11 2 17 5
13 3 -3 4 -12 1 -19z m-77 -63 c10 -13 10 -19 -5 -35 -25 -27 -35 -25 -35 8 0
43 17 54 40 27z m4 -76 c-41 -43 -50 -35 -12 11 18 21 35 34 37 29 2 -6 -9
-24 -25 -40z m-330 -26 c19 -23 19 -23 -2 -23 -17 0 -22 6 -22 27 0 14 1 24 3
22 1 -2 11 -14 21 -26z m166 -58 c16 -8 31 -24 35 -35 5 -17 15 -20 58 -20 47
0 54 3 69 30 30 53 108 49 133 -8 9 -21 15 -22 125 -22 110 0 116 1 125 22 25
57 103 61 133 8 20 -35 38 -38 47 -10 7 22 53 50 81 50 9 0 31 -16 49 -34 27
-29 41 -35 79 -37 25 -2 44 -5 41 -7 -2 -3 35 -36 83 -73 116 -92 144 -120
137 -137 -4 -12 -3 -13 9 -3 16 14 36 7 36 -12 0 -8 -3 -8 -9 2 -11 17 -25 -3
-17 -24 3 -8 0 -17 -6 -21 -6 -4 -8 -3 -4 4 3 6 2 13 -4 17 -5 3 -10 -1 -10
-9 0 -22 -9 -20 -37 6 -39 36 -39 10 0 -30 20 -21 37 -47 36 -57 0 -12 -3 -15
-6 -7 -4 10 -8 10 -21 0 -13 -11 -15 -11 -7 2 6 12 5 12 -4 4 -18 -17 -52 3
-102 60 -51 57 -72 51 -24 -8 19 -24 35 -51 35 -60 0 -10 5 -14 12 -10 7 5 8
3 3 -6 -6 -10 -13 -7 -27 11 -11 13 -16 17 -12 9 6 -12 5 -13 -7 -3 -9 7 -25
11 -37 8 -16 -3 -33 10 -69 52 -51 59 -73 57 -27 -3 22 -28 25 -37 14 -44 -7
-4 -20 -6 -28 -3 -12 5 -12 2 -3 -18 l12 -24 -19 22 c-15 17 -22 19 -32 10
-10 -9 -11 -9 -6 1 4 6 2 12 -4 12 -6 0 -25 22 -42 50 -38 61 -59 56 -23 -5
14 -24 24 -48 23 -52 -1 -4 3 -19 11 -33 9 -19 5 -16 -17 10 -26 29 -32 32
-46 21 -11 -9 -16 -10 -16 -2 0 7 -8 11 -17 9 -13 -2 -24 10 -38 39 -39 81
-63 79 -29 -2 14 -34 14 -39 -2 -56 -17 -19 -35 -17 -33 4 0 9 2 8 6 -1 2 -6
9 -10 14 -6 16 10 9 20 -16 22 -19 1 -23 -2 -19 -16 5 -14 3 -14 -10 2 -11 14
-16 16 -16 6 0 -25 -30 26 -38 66 -4 21 -14 40 -21 42 -10 3 -12 -2 -7 -22 3
-14 9 -37 12 -51 5 -22 3 -25 -20 -25 -14 0 -26 -6 -26 -12 0 -10 -2 -10 -8 0
-5 7 -16 10 -26 6 -24 -9 -36 11 -36 64 0 23 -4 42 -10 42 -5 0 -10 -22 -10
-50 l0 -50 -39 0 c-22 0 -46 -3 -55 -6 -13 -5 -16 3 -16 50 0 31 -4 56 -10 56
-5 0 -10 -15 -10 -32 0 -71 -6 -77 -64 -71 -28 3 -52 7 -54 8 -2 2 1 20 7 41
7 24 7 42 1 48 -10 10 -13 5 -30 -61 -10 -38 -14 -43 -40 -43 -17 0 -30 -5
-31 -12 0 -10 -2 -10 -6 0 -2 6 -12 12 -20 12 -13 0 -14 -2 -2 -17 13 -16 12
-17 -2 -5 -14 10 -15 19 -7 50 19 75 20 82 11 82 -5 0 -21 -27 -36 -60 -18
-39 -32 -58 -40 -53 -6 3 -28 6 -49 4 l-39 -2 26 50 c28 56 29 61 15 61 -5 0
-25 -25 -45 -55 -19 -31 -40 -53 -45 -50 -6 4 -13 -1 -16 -9 -3 -9 -10 -16
-15 -16 -4 0 -6 6 -3 13 3 9 -3 13 -18 12 -13 -1 -22 -8 -20 -14 1 -7 -2 -10
-8 -6 -12 7 0 33 36 82 18 23 21 34 12 39 -7 5 -20 -4 -32 -21 -49 -69 -74
-87 -111 -81 -19 3 -35 2 -35 -3 0 -13 28 -21 32 -9 2 6 8 5 15 -4 10 -11 6
-14 -20 -13 -44 1 -45 22 -2 77 19 26 35 49 35 52 0 17 -24 1 -68 -46 -44 -46
-54 -52 -97 -54 l-48 -3 47 48 c32 32 44 51 36 56 -6 4 -22 -2 -34 -14 -33
-31 -41 -26 -40 25 1 39 5 49 33 71 18 14 30 31 27 39 -3 7 0 11 8 8 6 -2 25
6 41 20 16 14 31 23 35 21 3 -2 16 10 29 26 13 16 27 26 32 24 4 -3 13 2 19
12 10 16 24 18 116 15 102 -3 104 -3 115 21 20 43 63 56 109 32z m1040 -65 c0
-5 -4 -10 -10 -10 -5 0 -10 5 -10 10 0 6 5 10 10 10 6 0 10 -4 10 -10z m-1487
-67 c-7 -2 -19 -2 -25 0 -7 3 -2 5 12 5 14 0 19 -2 13 -5z m-119 -82 c3 -5 -1
-14 -8 -20 -10 -9 -16 -9 -21 -1 -4 6 -1 9 7 8 7 -2 12 3 11 10 -3 14 3 16 11
3z m1806 -157 c0 -2 -9 0 -20 6 -11 6 -20 13 -20 16 0 2 9 0 20 -6 11 -6 20
-13 20 -16z m-1870 -29 c-7 -9 -15 -13 -17 -11 -7 7 7 26 19 26 6 0 6 -6 -2
-15z m-26 -54 c-6 -6 -11 1 -18 29 l-7 25 15 -25 c8 -14 12 -27 10 -29z m812
34 c-8 -8 -18 -15 -22 -15 -3 0 -1 7 6 15 7 8 17 15 22 15 5 0 3 -7 -6 -15z
m869 -14 c-6 -5 -25 10 -25 20 0 5 6 4 14 -3 8 -7 12 -15 11 -17z m276 7 c11
-21 11 -22 -4 -9 -10 7 -17 17 -17 22 0 15 9 10 21 -13z m-77 4 c3 -5 -1 -9
-9 -9 -8 0 -12 4 -9 9 3 4 7 8 9 8 2 0 6 -4 9 -8z m-1681 -19 c-4 -9 -2 -14 3
-11 5 4 10 -8 11 -25 l3 -32 -16 29 c-13 27 -13 56 0 56 3 0 2 -7 -1 -17z
m360 -3 c-4 -14 -13 -20 -32 -19 -25 0 -25 1 -5 9 12 5 25 13 29 19 10 17 14
13 8 -9z m542 10 c-4 -6 -10 -8 -15 -5 -4 3 -10 -2 -14 -10 -3 -8 -11 -15 -17
-15 -7 0 -5 8 6 20 18 20 51 28 40 10z m118 -5 c-3 -9 -8 -14 -10 -11 -3 3 -2
9 2 15 9 16 15 13 8 -4z m74 -21 c-6 -20 -13 -32 -14 -27 -4 11 14 63 21 63 2
0 -1 -16 -7 -36z m65 4 c-18 -18 -24 -20 -34 -10 -11 11 -10 12 4 7 11 -4 21
0 30 14 7 11 14 18 17 15 3 -2 -5 -14 -17 -26z m678 17 c0 -2 -6 -8 -13 -14
-10 -8 -14 -7 -14 2 0 8 6 14 14 14 7 0 13 -1 13 -2z m-1453 -27 c-3 -8 -6 -5
-6 6 -1 11 2 17 5 13 3 -3 4 -12 1 -19z m303 14 c0 -5 -7 -9 -15 -9 -8 0 -15
4 -15 9 0 4 7 8 15 8 8 0 15 -4 15 -8z m1090 -52 c6 0 10 5 10 10 0 6 -4 10
-10 10 -5 0 -10 5 -10 10 0 6 13 9 28 8 15 -1 33 1 40 6 7 4 12 5 12 2 0 -2 3
-11 6 -19 8 -23 -35 -57 -72 -57 -38 0 -84 34 -84 62 0 16 3 18 14 9 11 -9 15
-8 21 6 6 15 10 13 21 -14 8 -18 19 -33 24 -33z m-580 35 c-7 -8 -18 -15 -24
-15 -6 0 -2 7 8 15 25 19 32 19 16 0z m-1377 -12 c-7 -2 -21 -2 -30 0 -10 3
-4 5 12 5 17 0 24 -2 18 -5z m157 -3 c0 -5 -8 -10 -17 -10 -15 0 -16 2 -3 10
19 12 20 12 20 0z m330 6 c0 -11 -19 -15 -25 -6 -3 5 1 10 9 10 9 0 16 -2 16
-4z m690 0 c0 -3 -4 -8 -10 -11 -5 -3 -10 -1 -10 4 0 6 5 11 10 11 6 0 10 -2
10 -4z m265 -16 c3 -5 1 -10 -4 -10 -6 0 -11 5 -11 10 0 6 2 10 4 10 3 0 8 -4
11 -10z m189 1 c4 -5 -3 -7 -14 -4 -23 6 -26 13 -6 13 8 0 17 -4 20 -9z
m-1320 -12 c-3 -6 0 -15 7 -20 11 -7 11 -9 1 -9 -7 0 -11 -4 -7 -9 3 -5 1 -12
-4 -16 -6 -3 -10 -55 -9 -118 l1 -112 -34 -3 c-19 -2 -40 -8 -46 -14 -18 -15
-16 0 2 18 12 12 14 36 13 105 -3 85 -4 89 -25 89 -28 0 -29 -12 -5 -36 15
-16 15 -17 0 -12 -13 5 -18 -1 -23 -32 -4 -22 -4 -44 0 -49 3 -6 -6 -24 -21
-41 -35 -38 -72 -40 -105 -3 -13 15 -17 22 -8 15 13 -10 19 -9 29 3 7 8 19 15
27 15 8 0 11 5 8 10 -4 6 -11 7 -17 4 -7 -4 -8 -2 -4 4 4 7 14 12 21 12 16 0
18 67 3 76 -4 3 -8 10 -8 15 0 6 5 7 10 4 7 -4 9 3 6 18 -5 31 8 52 28 44 9
-4 16 -2 16 3 0 10 -12 13 -40 11 -10 0 -11 2 -3 5 7 3 15 5 19 4 4 -1 10 4
15 11 5 9 10 5 14 -14 7 -25 11 -27 57 -27 45 0 86 19 72 33 -6 6 4 27 12 27
3 0 2 -5 -2 -11z m96 -25 c0 -3 -7 -1 -15 6 -8 7 -15 17 -15 22 0 5 7 3 15 -6
8 -8 15 -18 15 -22z m80 4 c0 -6 -6 -5 -15 2 -8 7 -15 14 -15 16 0 2 7 1 15
-2 8 -4 15 -11 15 -16z m747 16 c-3 -3 -12 -4 -19 -1 -8 3 -5 6 6 6 11 1 17
-2 13 -5z m-402 -35 c-3 -4 -13 -5 -23 -2 -15 6 -16 5 -2 -13 14 -19 14 -19
-7 0 -25 21 -22 39 4 29 12 -5 14 -3 8 8 -8 12 -6 12 8 0 9 -7 14 -17 12 -22z
m702 25 c-3 -3 -12 -4 -19 -1 -8 3 -5 6 6 6 11 1 17 -2 13 -5z m232 -11 c-12
-15 -12 -16 3 -10 27 10 32 -12 6 -23 l-23 -9 23 -7 c22 -6 31 -24 11 -24 -5
0 -7 -5 -3 -12 10 -16 12 -98 2 -98 -4 0 -8 -6 -8 -14 0 -8 -14 -26 -31 -40
-44 -37 -101 -36 -140 3 -16 16 -29 37 -29 45 0 9 -4 16 -9 16 -5 0 -7 -8 -4
-19 3 -11 -2 -21 -13 -25 -13 -5 -15 -4 -5 8 6 7 9 21 5 30 -3 9 -1 16 5 16 6
0 11 8 11 18 0 14 -2 15 -10 2 -6 -9 -10 -10 -10 -3 0 6 4 14 10 18 5 3 7 12
3 20 -3 8 0 15 6 15 6 0 11 10 11 22 0 29 28 58 48 51 11 -5 14 -2 9 10 -6 17
4 23 16 10 12 -11 61 -12 74 -1 10 8 13 7 13 -3 0 -10 5 -9 17 4 22 22 30 22
12 0z m121 2 c10 -12 10 -15 -2 -15 -8 0 -15 7 -15 15 0 8 1 15 2 15 2 0 8 -7
15 -15z m-1935 -9 c17 1 24 0 17 -3 -10 -4 -9 -9 4 -24 18 -20 18 -20 32 3 9
16 12 17 8 4 -4 -11 1 -25 12 -35 27 -24 54 -85 39 -89 -7 -1 -20 -16 -29 -32
-11 -20 -28 -33 -48 -36 -20 -5 -30 -12 -30 -25 0 -14 -7 -19 -30 -19 -23 0
-30 4 -30 20 0 13 -7 20 -19 20 -11 0 -32 11 -48 24 -23 20 -27 32 -29 80 -1
30 2 53 7 51 4 -3 14 2 22 10 9 8 23 15 32 15 8 0 21 11 27 25 7 15 15 22 22
17 6 -5 25 -7 41 -6z m417 -1 c-15 -24 -10 -36 11 -29 12 4 23 11 25 15 2 5
16 6 30 3 26 -6 26 -6 7 9 -11 9 -15 17 -8 17 6 0 18 -6 25 -12 7 -7 26 -14
42 -15 34 -2 66 -29 66 -54 0 -10 5 -21 11 -25 6 -3 9 -17 6 -30 -2 -14 1 -24
7 -24 6 0 4 -6 -5 -13 -9 -7 -19 -22 -23 -34 -17 -52 -91 -78 -149 -52 -40 18
-55 56 -58 154 -2 50 -8 93 -14 97 -5 4 0 6 12 5 12 0 19 -6 15 -12z m730 3
c-9 -9 -7 -14 6 -25 16 -12 16 -14 -3 -25 -11 -7 -38 -13 -60 -13 -38 0 -41
-2 -49 -37 -7 -28 -6 -42 7 -62 12 -18 13 -26 4 -29 -8 -4 -7 -6 3 -7 50 -5
68 -5 64 2 -7 11 18 10 35 -1 9 -6 10 -11 2 -15 -6 -4 -9 -11 -6 -16 8 -14
-29 -30 -69 -30 -37 0 -96 40 -96 66 0 9 -3 13 -8 10 -10 -6 -8 95 2 112 4 7
3 19 -4 27 -8 9 -8 15 0 20 6 3 7 11 4 17 -4 6 -2 8 4 5 5 -4 8 -17 4 -30 -5
-22 -5 -22 17 -3 16 15 18 21 9 28 -9 5 -10 8 -1 8 6 0 15 -5 18 -10 5 -8 11
-7 21 1 8 7 29 9 49 6 19 -3 37 -1 40 4 4 5 9 9 13 9 3 0 1 -5 -6 -12z m193 2
c-3 -6 1 -7 9 -4 12 5 16 -1 16 -25 0 -28 -3 -31 -30 -31 l-29 0 1 -95 c0 -53
-1 -97 -3 -99 -2 -2 -24 -6 -48 -9 -25 -3 -39 -2 -33 2 7 4 10 16 6 27 -5 15
-4 16 4 5 10 -15 10 4 -3 107 -2 17 0 32 6 32 5 0 9 7 9 15 0 10 -10 15 -27
15 -21 0 -33 -8 -46 -31 -10 -18 -20 -29 -23 -26 -4 3 3 18 15 33 14 18 19 34
15 50 -7 27 -9 26 84 24 38 -1 62 3 62 9 0 6 5 11 11 11 5 0 7 -4 4 -10z
m-542 -16 c12 -2 27 -10 34 -17 16 -16 26 -77 12 -77 -5 0 -9 -6 -9 -14 0 -21
-40 -46 -73 -46 -35 0 -32 -21 4 -31 22 -7 23 -7 2 -8 -14 -1 -23 -8 -25 -23
-2 -17 -11 -24 -32 -26 -16 -2 -32 2 -36 8 -8 13 -30 5 -30 -10 0 -5 7 -16 16
-24 14 -15 14 -16 -5 -13 -11 2 -24 7 -28 12 -5 4 -2 4 6 0 11 -6 13 -4 7 10
-4 11 0 25 8 34 11 12 15 44 17 116 1 55 4 106 7 113 4 12 50 11 125 -4z m712
5 c23 -6 50 -24 63 -40 23 -28 23 -31 7 -55 -29 -45 -54 -64 -85 -64 -20 0
-30 -5 -30 -15 0 -8 6 -15 13 -16 10 0 10 -2 0 -6 -16 -6 -17 -43 -2 -43 5 0
7 5 4 10 -3 5 -1 10 4 10 14 0 14 -20 1 -40 -6 -10 -10 -11 -10 -2 0 7 -14 12
-34 12 -22 0 -36 6 -40 16 -11 29 -7 232 5 236 27 9 67 8 104 -3z m605 0 c0 8
3 11 6 8 4 -4 2 -12 -4 -20 -11 -13 -11 -54 0 -72 7 -12 3 -60 -7 -97 -4 -15
-2 -35 5 -47 10 -20 8 -21 -30 -21 -37 0 -41 2 -35 21 6 18 4 20 -17 14 l-23
-7 22 16 c18 13 22 26 22 74 l0 57 -45 -80 c-24 -44 -44 -83 -44 -87 0 -5 -18
-8 -40 -8 -25 0 -40 -5 -40 -12 0 -9 -3 -8 -10 2 -6 9 -5 17 2 21 6 4 7 12 3
19 -5 9 -4 11 3 6 9 -5 11 22 9 101 l-2 108 35 -3 c42 -5 64 -29 44 -50 -16
-16 -19 -62 -4 -62 6 0 10 6 10 13 0 8 9 22 20 32 11 10 20 23 20 30 0 22 37
47 59 40 14 -4 21 -2 21 7 0 10 3 9 10 -2 8 -12 10 -12 10 -1z m-1485 -19 c3
-5 2 -10 -4 -10 -5 0 -13 5 -16 10 -3 6 -2 10 4 10 5 0 13 -4 16 -10z m440
-70 c-3 -5 -1 -10 6 -10 7 0 10 -3 6 -6 -9 -9 -28 6 -22 17 4 5 8 9 11 9 3 0
2 -4 -1 -10z m140 -13 c6 -5 3 -7 -7 -4 -9 3 -22 -1 -28 -9 -7 -8 -16 -14 -21
-14 -4 0 2 10 14 23 12 13 24 21 27 18 3 -3 10 -10 15 -14z m-818 -19 c-3 -8
-6 -5 -6 6 -1 11 2 17 5 13 3 -3 4 -12 1 -19z m733 2 c0 -5 -2 -10 -4 -10 -3
0 -8 5 -11 10 -3 6 -1 10 4 10 6 0 11 -4 11 -10z m207 -88 c-2 -15 -4 -2 -4
28 0 30 2 43 4 28 2 -16 2 -40 0 -56z m-480 61 c-4 -3 3 -18 15 -31 13 -14 18
-22 11 -18 -6 3 -14 2 -18 -4 -3 -5 -12 -10 -18 -10 -7 0 -4 7 6 14 15 12 15
15 2 26 -14 11 -12 30 2 30 4 0 3 -3 0 -7z m27 -9 c3 -8 2 -12 -4 -9 -6 3 -10
10 -10 16 0 14 7 11 14 -7z m233 0 c-3 -3 -12 -4 -19 -1 -8 3 -5 6 6 6 11 1
17 -2 13 -5z m933 -3 c0 -5 -7 -12 -16 -15 -14 -5 -15 -4 -4 9 14 17 20 19 20
6z m-1217 -32 c-8 -8 -13 -7 -18 2 -5 8 -4 10 3 5 7 -4 12 -2 12 5 0 7 3 9 7
6 4 -4 2 -12 -4 -18z m372 11 c3 -5 1 -10 -4 -10 -6 0 -11 5 -11 10 0 6 2 10
4 10 3 0 8 -4 11 -10z m385 0 c0 -5 -2 -10 -4 -10 -3 0 -8 5 -11 10 -3 6 -1
10 4 10 6 0 11 -4 11 -10z m-1725 -19 c3 -5 2 -12 -3 -15 -5 -3 -9 1 -9 9 0
17 3 19 12 6z m1710 -1 c2 -4 -7 -6 -21 -4 -35 3 -41 12 -9 12 14 0 27 -4 30
-8z m265 -27 c-11 -17 -11 -17 -6 0 3 10 6 24 7 30 0 9 2 9 5 0 3 -7 0 -20 -6
-30z m-1560 13 c0 -3 -4 -8 -10 -11 -5 -3 -10 -1 -10 4 0 6 5 11 10 11 6 0 10
-2 10 -4z m520 0 c0 -3 -4 -8 -10 -11 -5 -3 -10 -1 -10 4 0 6 5 11 10 11 6 0
10 -2 10 -4z m1360 0 c0 -2 -7 -7 -16 -10 -8 -3 -12 -2 -9 4 6 10 25 14 25 6z
m-1537 -20 c7 -17 -30 -63 -41 -51 -4 4 -1 10 6 12 6 3 10 9 6 14 -3 5 0 8 8
7 8 -2 12 4 10 15 -3 21 4 23 11 3z m1011 -27 c-19 -21 -13 -24 15 -10 12 7
18 6 18 -2 0 -8 -11 -12 -26 -11 -36 2 -36 3 -24 15 6 6 9 18 6 25 -4 10 0 12
11 8 16 -6 16 -8 0 -25z m-1694 11 c0 -5 -5 -10 -11 -10 -5 0 -7 5 -4 10 3 6
8 10 11 10 2 0 4 -4 4 -10z m179 -13 c0 -9 -2 -8 -6 1 -2 6 -10 9 -15 6 -7 -4
-8 -2 -4 5 9 13 26 5 25 -12z m1215 11 c-5 -8 -2 -9 9 -5 10 3 17 3 17 -2 0
-5 -9 -11 -20 -14 -19 -5 -28 12 -13 26 10 11 15 8 7 -5z m673 -3 c0 -8 -4
-12 -9 -9 -4 3 -8 9 -8 15 0 5 4 9 8 9 5 0 9 -7 9 -15z m158 5 c3 -6 -1 -7 -9
-4 -18 7 -21 14 -7 14 6 0 13 -4 16 -10z m-1928 -18 c0 -10 -6 -19 -13 -19 -9
0 -11 13 -5 35 1 1 5 2 10 2 6 0 9 -8 8 -18z m761 11 c-10 -2 -18 -9 -18 -15
0 -6 -3 -9 -6 -5 -10 10 6 27 24 26 15 -1 15 -2 0 -6z m-628 -18 c0 -9 -6 -12
-16 -8 -13 5 -13 7 -2 14 17 11 18 11 18 -6z m110 -7 c0 -6 -6 -5 -15 2 -8 7
-15 14 -15 16 0 2 7 1 15 -2 8 -4 15 -11 15 -16z m544 7 c-4 -8 -13 -15 -22
-15 -13 0 -12 3 4 15 24 18 25 18 18 0z m1023 -7 c-3 -8 -6 -5 -6 6 -1 11 2
17 5 13 3 -3 4 -12 1 -19z m107 6 c5 -14 4 -15 -9 -4 -17 14 -19 20 -6 20 5 0
12 -7 15 -16z m-2204 -4 c0 -5 -7 -7 -15 -4 -8 4 -15 8 -15 10 0 2 7 4 15 4 8
0 15 -4 15 -10z m1121 -8 c-7 -2 -18 1 -23 6 -8 8 -4 9 13 5 13 -4 18 -8 10
-11z m-884 2 c-3 -3 -12 -4 -19 -1 -8 3 -5 6 6 6 11 1 17 -2 13 -5z"/>
<path d="M870 1078 c-16 -22 -30 -47 -30 -55 0 -17 50 -17 75 1 11 7 35 17 53
21 28 6 32 10 32 41 l0 34 -50 0 c-47 0 -52 -2 -80 -42z"/>
<path d="M1012 1088 c2 -21 8 -33 18 -33 10 0 16 12 18 33 3 27 0 32 -18 32
-18 0 -21 -5 -18 -32z"/>
<path d="M435 131 c-3 -5 -2 -12 3 -15 5 -3 9 1 9 9 0 17 -3 19 -12 6z"/>
<path d="M2013 292 c-16 -10 -29 -82 -14 -82 6 0 8 -7 5 -15 -7 -17 14 -40 36
-40 21 0 43 23 37 39 -3 8 -3 17 1 20 11 12 12 47 2 67 -11 19 -45 25 -67 11z
m10 -37 c-3 -9 -8 -14 -10 -11 -3 3 -2 9 2 15 9 16 15 13 8 -4z m42 -15 c-3
-5 -14 -10 -23 -9 -14 0 -13 2 3 9 27 11 27 11 20 0z"/>
<path d="M227 263 c-14 -13 -6 -49 13 -61 18 -11 20 -10 16 10 -2 13 1 31 6
41 7 13 5 17 -10 17 -10 0 -22 -3 -25 -7z"/>
<path d="M324 238 c2 -18 4 -40 5 -48 1 -11 5 -10 13 5 18 30 20 57 6 67 -23
14 -28 9 -24 -24z m19 -13 c-3 -9 -8 -14 -10 -11 -3 3 -2 9 2 15 9 16 15 13 8
-4z"/>
<path d="M790 281 c-23 -44 -1 -121 36 -121 35 0 48 31 29 72 -4 10 -12 15
-18 11 -6 -4 -7 -1 -2 7 6 10 11 9 22 -5 12 -18 13 -17 13 6 0 14 -5 30 -12
37 -18 18 -56 14 -68 -7z m34 -25 c-3 -9 -12 -16 -20 -16 -11 0 -10 4 4 18 20
22 25 21 16 -2z m9 -80 c-3 -4 -9 -2 -14 5 -13 22 -11 31 5 17 8 -7 12 -17 9
-22z"/>
<path d="M1055 283 c4 -10 8 -23 8 -29 0 -13 22 -13 34 0 4 4 2 6 -6 4 -7 -1
-16 3 -18 10 -3 8 1 10 13 5 12 -4 15 -2 12 8 -2 8 -15 16 -28 17 -19 3 -21 1
-15 -15z"/>
<path d="M1780 291 c0 -6 4 -12 10 -16 5 -3 7 -12 3 -21 -8 -22 20 -13 30 9 4
11 5 23 1 28 -7 12 -44 12 -44 0z"/>
</g>
</svg>
